<mxfile host="app.diagrams.net" modified="2023-08-28T16:21:32.538Z" agent="Mozilla/5.0 (Macintosh; Intel Mac OS X 10_15_7) AppleWebKit/537.36 (KHTML, like Gecko) Chrome/115.0.0.0 Safari/537.36" etag="5r3jGjx1vWHwwDsmgNi8" version="21.6.8" type="github">
  <diagram id="C5RBs43oDa-KdzZeNtuy" name="Page-1">
    <mxGraphModel dx="2143" dy="844" grid="1" gridSize="10" guides="1" tooltips="1" connect="1" arrows="1" fold="1" page="1" pageScale="1" pageWidth="827" pageHeight="1169" math="0" shadow="0">
      <root>
        <mxCell id="WIyWlLk6GJQsqaUBKTNV-0" />
        <mxCell id="WIyWlLk6GJQsqaUBKTNV-1" parent="WIyWlLk6GJQsqaUBKTNV-0" />
        <mxCell id="lBqZCHfxyC3GmHe8Lh2Y-9" value="" style="ellipse;html=1;shape=startState;fillColor=#000000;strokeColor=#ff0000;" vertex="1" parent="WIyWlLk6GJQsqaUBKTNV-1">
          <mxGeometry x="350" y="105" width="30" height="30" as="geometry" />
        </mxCell>
        <mxCell id="lBqZCHfxyC3GmHe8Lh2Y-10" value="" style="edgeStyle=orthogonalEdgeStyle;html=1;verticalAlign=bottom;endArrow=open;endSize=8;strokeColor=#ff0000;rounded=0;entryX=0.5;entryY=0;entryDx=0;entryDy=0;" edge="1" source="lBqZCHfxyC3GmHe8Lh2Y-9" parent="WIyWlLk6GJQsqaUBKTNV-1" target="lBqZCHfxyC3GmHe8Lh2Y-12">
          <mxGeometry relative="1" as="geometry">
            <mxPoint x="364.9999999999998" y="215" as="targetPoint" />
          </mxGeometry>
        </mxCell>
        <mxCell id="lBqZCHfxyC3GmHe8Lh2Y-12" value="Client enters login?" style="rhombus;whiteSpace=wrap;html=1;fontColor=#000000;fillColor=#ffffc0;strokeColor=#ff0000;" vertex="1" parent="WIyWlLk6GJQsqaUBKTNV-1">
          <mxGeometry x="305" y="165" width="120" height="70" as="geometry" />
        </mxCell>
        <mxCell id="lBqZCHfxyC3GmHe8Lh2Y-13" value="no" style="edgeStyle=orthogonalEdgeStyle;html=1;align=left;verticalAlign=bottom;endArrow=open;endSize=8;strokeColor=#ff0000;rounded=0;entryX=0;entryY=0.5;entryDx=0;entryDy=0;" edge="1" source="lBqZCHfxyC3GmHe8Lh2Y-12" parent="WIyWlLk6GJQsqaUBKTNV-1" target="lBqZCHfxyC3GmHe8Lh2Y-15">
          <mxGeometry x="-1" relative="1" as="geometry">
            <mxPoint x="504" y="245" as="targetPoint" />
          </mxGeometry>
        </mxCell>
        <mxCell id="lBqZCHfxyC3GmHe8Lh2Y-14" value="yes" style="edgeStyle=orthogonalEdgeStyle;html=1;align=left;verticalAlign=top;endArrow=open;endSize=8;strokeColor=#ff0000;rounded=0;entryX=0.5;entryY=0;entryDx=0;entryDy=0;" edge="1" source="lBqZCHfxyC3GmHe8Lh2Y-12" parent="WIyWlLk6GJQsqaUBKTNV-1" target="lBqZCHfxyC3GmHe8Lh2Y-16">
          <mxGeometry x="-1" relative="1" as="geometry">
            <mxPoint x="360" y="355" as="targetPoint" />
          </mxGeometry>
        </mxCell>
        <mxCell id="lBqZCHfxyC3GmHe8Lh2Y-15" value="Access to basic map interface" style="html=1;whiteSpace=wrap;" vertex="1" parent="WIyWlLk6GJQsqaUBKTNV-1">
          <mxGeometry x="460" y="175" width="110" height="50" as="geometry" />
        </mxCell>
        <mxCell id="lBqZCHfxyC3GmHe8Lh2Y-43" style="edgeStyle=orthogonalEdgeStyle;rounded=0;orthogonalLoop=1;jettySize=auto;html=1;exitX=0;exitY=0.5;exitDx=0;exitDy=0;entryX=1;entryY=0.5;entryDx=0;entryDy=0;" edge="1" parent="WIyWlLk6GJQsqaUBKTNV-1" source="lBqZCHfxyC3GmHe8Lh2Y-16" target="lBqZCHfxyC3GmHe8Lh2Y-40">
          <mxGeometry relative="1" as="geometry" />
        </mxCell>
        <mxCell id="lBqZCHfxyC3GmHe8Lh2Y-54" style="edgeStyle=orthogonalEdgeStyle;rounded=0;orthogonalLoop=1;jettySize=auto;html=1;entryX=0;entryY=0.5;entryDx=0;entryDy=0;" edge="1" parent="WIyWlLk6GJQsqaUBKTNV-1" source="lBqZCHfxyC3GmHe8Lh2Y-16" target="lBqZCHfxyC3GmHe8Lh2Y-51">
          <mxGeometry relative="1" as="geometry" />
        </mxCell>
        <mxCell id="lBqZCHfxyC3GmHe8Lh2Y-16" value="Access to advanced map interface" style="html=1;whiteSpace=wrap;" vertex="1" parent="WIyWlLk6GJQsqaUBKTNV-1">
          <mxGeometry x="310" y="275" width="110" height="50" as="geometry" />
        </mxCell>
        <mxCell id="lBqZCHfxyC3GmHe8Lh2Y-17" value="client is registered" style="html=1;whiteSpace=wrap;" vertex="1" parent="WIyWlLk6GJQsqaUBKTNV-1">
          <mxGeometry x="160" y="90" width="110" height="60" as="geometry" />
        </mxCell>
        <mxCell id="lBqZCHfxyC3GmHe8Lh2Y-23" value="" style="endArrow=none;dashed=1;html=1;rounded=0;entryX=0.188;entryY=0.491;entryDx=0;entryDy=0;entryPerimeter=0;exitX=1;exitY=0.5;exitDx=0;exitDy=0;" edge="1" parent="WIyWlLk6GJQsqaUBKTNV-1" source="lBqZCHfxyC3GmHe8Lh2Y-17" target="lBqZCHfxyC3GmHe8Lh2Y-9">
          <mxGeometry width="50" height="50" relative="1" as="geometry">
            <mxPoint x="260" y="120" as="sourcePoint" />
            <mxPoint x="350.000000000004" y="119.69999999999999" as="targetPoint" />
          </mxGeometry>
        </mxCell>
        <mxCell id="lBqZCHfxyC3GmHe8Lh2Y-40" value="Client uploads script?" style="rhombus;whiteSpace=wrap;html=1;fontColor=#000000;fillColor=#ffffc0;strokeColor=#ff0000;" vertex="1" parent="WIyWlLk6GJQsqaUBKTNV-1">
          <mxGeometry x="140" y="275" width="100" height="50" as="geometry" />
        </mxCell>
        <mxCell id="lBqZCHfxyC3GmHe8Lh2Y-42" value="yes" style="edgeStyle=orthogonalEdgeStyle;html=1;align=left;verticalAlign=top;endArrow=open;endSize=8;strokeColor=#ff0000;rounded=0;entryX=0.5;entryY=0;entryDx=0;entryDy=0;" edge="1" source="lBqZCHfxyC3GmHe8Lh2Y-40" parent="WIyWlLk6GJQsqaUBKTNV-1" target="lBqZCHfxyC3GmHe8Lh2Y-44">
          <mxGeometry x="-1" relative="1" as="geometry">
            <mxPoint x="165" y="375" as="targetPoint" />
          </mxGeometry>
        </mxCell>
        <mxCell id="lBqZCHfxyC3GmHe8Lh2Y-58" style="edgeStyle=orthogonalEdgeStyle;rounded=0;orthogonalLoop=1;jettySize=auto;html=1;entryX=0.5;entryY=0;entryDx=0;entryDy=0;" edge="1" parent="WIyWlLk6GJQsqaUBKTNV-1" source="lBqZCHfxyC3GmHe8Lh2Y-44" target="lBqZCHfxyC3GmHe8Lh2Y-57">
          <mxGeometry relative="1" as="geometry" />
        </mxCell>
        <mxCell id="lBqZCHfxyC3GmHe8Lh2Y-44" value="Access to script location suggestion tool" style="html=1;whiteSpace=wrap;" vertex="1" parent="WIyWlLk6GJQsqaUBKTNV-1">
          <mxGeometry x="135" y="370" width="110" height="50" as="geometry" />
        </mxCell>
        <mxCell id="lBqZCHfxyC3GmHe8Lh2Y-46" value="Access to basic map interface" style="html=1;whiteSpace=wrap;" vertex="1" parent="WIyWlLk6GJQsqaUBKTNV-1">
          <mxGeometry x="-10" y="275" width="110" height="50" as="geometry" />
        </mxCell>
        <mxCell id="lBqZCHfxyC3GmHe8Lh2Y-48" value="no" style="edgeStyle=orthogonalEdgeStyle;html=1;align=left;verticalAlign=top;endArrow=open;endSize=8;strokeColor=#ff0000;rounded=0;entryX=1;entryY=0.5;entryDx=0;entryDy=0;exitX=0;exitY=0.5;exitDx=0;exitDy=0;" edge="1" parent="WIyWlLk6GJQsqaUBKTNV-1" source="lBqZCHfxyC3GmHe8Lh2Y-40" target="lBqZCHfxyC3GmHe8Lh2Y-46">
          <mxGeometry x="-0.3333" relative="1" as="geometry">
            <mxPoint x="150" y="370" as="targetPoint" />
            <mxPoint x="135" y="302" as="sourcePoint" />
            <mxPoint as="offset" />
          </mxGeometry>
        </mxCell>
        <mxCell id="lBqZCHfxyC3GmHe8Lh2Y-51" value="Client uploads budget?" style="rhombus;whiteSpace=wrap;html=1;fontColor=#000000;fillColor=#ffffc0;strokeColor=#ff0000;" vertex="1" parent="WIyWlLk6GJQsqaUBKTNV-1">
          <mxGeometry x="480" y="275" width="110" height="50" as="geometry" />
        </mxCell>
        <mxCell id="lBqZCHfxyC3GmHe8Lh2Y-52" value="no" style="edgeStyle=orthogonalEdgeStyle;html=1;align=left;verticalAlign=bottom;endArrow=open;endSize=8;strokeColor=#ff0000;rounded=0;entryX=0;entryY=0.5;entryDx=0;entryDy=0;" edge="1" source="lBqZCHfxyC3GmHe8Lh2Y-51" parent="WIyWlLk6GJQsqaUBKTNV-1" target="lBqZCHfxyC3GmHe8Lh2Y-56">
          <mxGeometry x="-1" relative="1" as="geometry">
            <mxPoint x="660" y="300" as="targetPoint" />
          </mxGeometry>
        </mxCell>
        <mxCell id="lBqZCHfxyC3GmHe8Lh2Y-53" value="yes" style="edgeStyle=orthogonalEdgeStyle;html=1;align=left;verticalAlign=top;endArrow=open;endSize=8;strokeColor=#ff0000;rounded=0;entryX=0.5;entryY=0;entryDx=0;entryDy=0;" edge="1" source="lBqZCHfxyC3GmHe8Lh2Y-51" parent="WIyWlLk6GJQsqaUBKTNV-1" target="lBqZCHfxyC3GmHe8Lh2Y-55">
          <mxGeometry x="-1" relative="1" as="geometry">
            <mxPoint x="520" y="380" as="targetPoint" />
          </mxGeometry>
        </mxCell>
        <mxCell id="lBqZCHfxyC3GmHe8Lh2Y-60" style="edgeStyle=orthogonalEdgeStyle;rounded=0;orthogonalLoop=1;jettySize=auto;html=1;entryX=0.5;entryY=0;entryDx=0;entryDy=0;" edge="1" parent="WIyWlLk6GJQsqaUBKTNV-1" source="lBqZCHfxyC3GmHe8Lh2Y-55" target="lBqZCHfxyC3GmHe8Lh2Y-57">
          <mxGeometry relative="1" as="geometry" />
        </mxCell>
        <mxCell id="lBqZCHfxyC3GmHe8Lh2Y-55" value="Access to budget suggestion tool" style="html=1;whiteSpace=wrap;" vertex="1" parent="WIyWlLk6GJQsqaUBKTNV-1">
          <mxGeometry x="480" y="370" width="110" height="50" as="geometry" />
        </mxCell>
        <mxCell id="lBqZCHfxyC3GmHe8Lh2Y-56" value="Access to basic map interface" style="html=1;whiteSpace=wrap;" vertex="1" parent="WIyWlLk6GJQsqaUBKTNV-1">
          <mxGeometry x="630" y="275" width="110" height="50" as="geometry" />
        </mxCell>
        <mxCell id="lBqZCHfxyC3GmHe8Lh2Y-64" style="edgeStyle=orthogonalEdgeStyle;rounded=0;orthogonalLoop=1;jettySize=auto;html=1;exitX=1;exitY=0.5;exitDx=0;exitDy=0;entryX=0;entryY=0.5;entryDx=0;entryDy=0;" edge="1" parent="WIyWlLk6GJQsqaUBKTNV-1" source="lBqZCHfxyC3GmHe8Lh2Y-57" target="lBqZCHfxyC3GmHe8Lh2Y-65">
          <mxGeometry relative="1" as="geometry">
            <mxPoint x="480" y="525" as="targetPoint" />
          </mxGeometry>
        </mxCell>
        <mxCell id="lBqZCHfxyC3GmHe8Lh2Y-57" value="" style="ellipse;html=1;shape=endState;fillColor=#000000;strokeColor=#ff0000;" vertex="1" parent="WIyWlLk6GJQsqaUBKTNV-1">
          <mxGeometry x="350" y="510" width="30" height="30" as="geometry" />
        </mxCell>
        <mxCell id="lBqZCHfxyC3GmHe8Lh2Y-62" value="User Activity Flow Diagram" style="swimlane;" vertex="1" parent="WIyWlLk6GJQsqaUBKTNV-1">
          <mxGeometry x="-45" y="60" width="825" height="500" as="geometry" />
        </mxCell>
        <mxCell id="lBqZCHfxyC3GmHe8Lh2Y-65" value="PDF report of results" style="html=1;whiteSpace=wrap;" vertex="1" parent="lBqZCHfxyC3GmHe8Lh2Y-62">
          <mxGeometry x="525" y="440" width="110" height="50" as="geometry" />
        </mxCell>
        <mxCell id="lBqZCHfxyC3GmHe8Lh2Y-69" value="" style="shape=umlLifeline;perimeter=lifelinePerimeter;whiteSpace=wrap;html=1;container=1;dropTarget=0;collapsible=0;recursiveResize=0;outlineConnect=0;portConstraint=eastwest;newEdgeStyle={&quot;edgeStyle&quot;:&quot;elbowEdgeStyle&quot;,&quot;elbow&quot;:&quot;vertical&quot;,&quot;curved&quot;:0,&quot;rounded&quot;:0};participant=umlActor;" vertex="1" parent="WIyWlLk6GJQsqaUBKTNV-1">
          <mxGeometry x="-413" y="650" width="20" height="470" as="geometry" />
        </mxCell>
        <mxCell id="lBqZCHfxyC3GmHe8Lh2Y-73" value="" style="html=1;points=[];perimeter=orthogonalPerimeter;outlineConnect=0;targetShapes=umlLifeline;portConstraint=eastwest;newEdgeStyle={&quot;edgeStyle&quot;:&quot;elbowEdgeStyle&quot;,&quot;elbow&quot;:&quot;vertical&quot;,&quot;curved&quot;:0,&quot;rounded&quot;:0};" vertex="1" parent="lBqZCHfxyC3GmHe8Lh2Y-69">
          <mxGeometry x="5" y="80.09" width="10" height="220" as="geometry" />
        </mxCell>
        <mxCell id="lBqZCHfxyC3GmHe8Lh2Y-96" value="" style="html=1;points=[];perimeter=orthogonalPerimeter;outlineConnect=0;targetShapes=umlLifeline;portConstraint=eastwest;newEdgeStyle={&quot;edgeStyle&quot;:&quot;elbowEdgeStyle&quot;,&quot;elbow&quot;:&quot;vertical&quot;,&quot;curved&quot;:0,&quot;rounded&quot;:0};" vertex="1" parent="lBqZCHfxyC3GmHe8Lh2Y-69">
          <mxGeometry x="5" y="378.93" width="10" height="40" as="geometry" />
        </mxCell>
        <mxCell id="lBqZCHfxyC3GmHe8Lh2Y-70" value="Backend Server" style="shape=umlLifeline;perimeter=lifelinePerimeter;whiteSpace=wrap;html=1;container=1;dropTarget=0;collapsible=0;recursiveResize=0;outlineConnect=0;portConstraint=eastwest;newEdgeStyle={&quot;edgeStyle&quot;:&quot;elbowEdgeStyle&quot;,&quot;elbow&quot;:&quot;vertical&quot;,&quot;curved&quot;:0,&quot;rounded&quot;:0};" vertex="1" parent="WIyWlLk6GJQsqaUBKTNV-1">
          <mxGeometry x="-80" y="650" width="100" height="470" as="geometry" />
        </mxCell>
        <mxCell id="lBqZCHfxyC3GmHe8Lh2Y-79" value="" style="html=1;points=[];perimeter=orthogonalPerimeter;outlineConnect=0;targetShapes=umlLifeline;portConstraint=eastwest;newEdgeStyle={&quot;edgeStyle&quot;:&quot;elbowEdgeStyle&quot;,&quot;elbow&quot;:&quot;vertical&quot;,&quot;curved&quot;:0,&quot;rounded&quot;:0};" vertex="1" parent="lBqZCHfxyC3GmHe8Lh2Y-70">
          <mxGeometry x="45" y="110.09" width="10" height="40" as="geometry" />
        </mxCell>
        <mxCell id="lBqZCHfxyC3GmHe8Lh2Y-89" value="" style="html=1;points=[];perimeter=orthogonalPerimeter;outlineConnect=0;targetShapes=umlLifeline;portConstraint=eastwest;newEdgeStyle={&quot;edgeStyle&quot;:&quot;elbowEdgeStyle&quot;,&quot;elbow&quot;:&quot;vertical&quot;,&quot;curved&quot;:0,&quot;rounded&quot;:0};" vertex="1" parent="lBqZCHfxyC3GmHe8Lh2Y-70">
          <mxGeometry x="45" y="200.09" width="10" height="40" as="geometry" />
        </mxCell>
        <mxCell id="lBqZCHfxyC3GmHe8Lh2Y-71" value="Basic Map Interface" style="shape=umlLifeline;perimeter=lifelinePerimeter;whiteSpace=wrap;html=1;container=1;dropTarget=0;collapsible=0;recursiveResize=0;outlineConnect=0;portConstraint=eastwest;newEdgeStyle={&quot;edgeStyle&quot;:&quot;elbowEdgeStyle&quot;,&quot;elbow&quot;:&quot;vertical&quot;,&quot;curved&quot;:0,&quot;rounded&quot;:0};" vertex="1" parent="WIyWlLk6GJQsqaUBKTNV-1">
          <mxGeometry x="-360" y="650" width="100" height="470" as="geometry" />
        </mxCell>
        <mxCell id="lBqZCHfxyC3GmHe8Lh2Y-97" value="" style="html=1;points=[];perimeter=orthogonalPerimeter;outlineConnect=0;targetShapes=umlLifeline;portConstraint=eastwest;newEdgeStyle={&quot;edgeStyle&quot;:&quot;elbowEdgeStyle&quot;,&quot;elbow&quot;:&quot;vertical&quot;,&quot;curved&quot;:0,&quot;rounded&quot;:0};" vertex="1" parent="lBqZCHfxyC3GmHe8Lh2Y-71">
          <mxGeometry x="45" y="378.93" width="10" height="20" as="geometry" />
        </mxCell>
        <mxCell id="lBqZCHfxyC3GmHe8Lh2Y-72" value="Advanced Map Interface" style="shape=umlLifeline;perimeter=lifelinePerimeter;whiteSpace=wrap;html=1;container=1;dropTarget=0;collapsible=0;recursiveResize=0;outlineConnect=0;portConstraint=eastwest;newEdgeStyle={&quot;edgeStyle&quot;:&quot;elbowEdgeStyle&quot;,&quot;elbow&quot;:&quot;vertical&quot;,&quot;curved&quot;:0,&quot;rounded&quot;:0};" vertex="1" parent="WIyWlLk6GJQsqaUBKTNV-1">
          <mxGeometry x="-240" y="650" width="100" height="470" as="geometry" />
        </mxCell>
        <mxCell id="lBqZCHfxyC3GmHe8Lh2Y-75" value="" style="html=1;points=[];perimeter=orthogonalPerimeter;outlineConnect=0;targetShapes=umlLifeline;portConstraint=eastwest;newEdgeStyle={&quot;edgeStyle&quot;:&quot;elbowEdgeStyle&quot;,&quot;elbow&quot;:&quot;vertical&quot;,&quot;curved&quot;:0,&quot;rounded&quot;:0};" vertex="1" parent="lBqZCHfxyC3GmHe8Lh2Y-72">
          <mxGeometry x="45" y="80.09" width="10" height="70" as="geometry" />
        </mxCell>
        <mxCell id="lBqZCHfxyC3GmHe8Lh2Y-88" value="" style="html=1;points=[];perimeter=orthogonalPerimeter;outlineConnect=0;targetShapes=umlLifeline;portConstraint=eastwest;newEdgeStyle={&quot;edgeStyle&quot;:&quot;elbowEdgeStyle&quot;,&quot;elbow&quot;:&quot;vertical&quot;,&quot;curved&quot;:0,&quot;rounded&quot;:0};" vertex="1" parent="lBqZCHfxyC3GmHe8Lh2Y-72">
          <mxGeometry x="45" y="200.09" width="10" height="40" as="geometry" />
        </mxCell>
        <mxCell id="lBqZCHfxyC3GmHe8Lh2Y-76" value="user login" style="html=1;verticalAlign=bottom;endArrow=block;edgeStyle=elbowEdgeStyle;elbow=vertical;curved=0;rounded=0;" edge="1" parent="WIyWlLk6GJQsqaUBKTNV-1" source="lBqZCHfxyC3GmHe8Lh2Y-73">
          <mxGeometry x="0.4704" y="-10" width="80" relative="1" as="geometry">
            <mxPoint x="-398" y="730.0933333333334" as="sourcePoint" />
            <mxPoint x="-194.9999999999999" y="730.0933333333334" as="targetPoint" />
            <mxPoint as="offset" />
          </mxGeometry>
        </mxCell>
        <mxCell id="lBqZCHfxyC3GmHe8Lh2Y-78" value="script upload" style="html=1;verticalAlign=bottom;endArrow=block;edgeStyle=elbowEdgeStyle;elbow=vertical;curved=0;rounded=0;" edge="1" parent="WIyWlLk6GJQsqaUBKTNV-1" source="lBqZCHfxyC3GmHe8Lh2Y-75" target="lBqZCHfxyC3GmHe8Lh2Y-79">
          <mxGeometry x="0.2356" y="-10" width="80" relative="1" as="geometry">
            <mxPoint x="-180" y="750.09" as="sourcePoint" />
            <mxPoint x="-80" y="750.09" as="targetPoint" />
            <mxPoint as="offset" />
            <Array as="points">
              <mxPoint x="-180" y="760.09" />
            </Array>
          </mxGeometry>
        </mxCell>
        <mxCell id="lBqZCHfxyC3GmHe8Lh2Y-80" value="login fail" style="html=1;verticalAlign=bottom;endArrow=open;dashed=1;endSize=8;edgeStyle=elbowEdgeStyle;elbow=vertical;curved=0;rounded=0;" edge="1" parent="WIyWlLk6GJQsqaUBKTNV-1">
          <mxGeometry x="-0.4775" y="10" relative="1" as="geometry">
            <mxPoint x="-197" y="750.09" as="sourcePoint" />
            <mxPoint x="-400" y="750.09" as="targetPoint" />
            <mxPoint as="offset" />
          </mxGeometry>
        </mxCell>
        <mxCell id="lBqZCHfxyC3GmHe8Lh2Y-84" value="process fail" style="html=1;verticalAlign=bottom;endArrow=open;dashed=1;endSize=8;edgeStyle=elbowEdgeStyle;elbow=vertical;curved=0;rounded=0;" edge="1" parent="WIyWlLk6GJQsqaUBKTNV-1" source="lBqZCHfxyC3GmHe8Lh2Y-79">
          <mxGeometry x="-0.1743" y="10" relative="1" as="geometry">
            <mxPoint x="-80" y="780.09" as="sourcePoint" />
            <mxPoint x="-184" y="780.09" as="targetPoint" />
            <mxPoint as="offset" />
          </mxGeometry>
        </mxCell>
        <mxCell id="lBqZCHfxyC3GmHe8Lh2Y-86" value="budget upload" style="html=1;verticalAlign=bottom;endArrow=block;edgeStyle=elbowEdgeStyle;elbow=vertical;curved=0;rounded=0;" edge="1" parent="WIyWlLk6GJQsqaUBKTNV-1">
          <mxGeometry x="0.2356" y="-10" width="80" relative="1" as="geometry">
            <mxPoint x="-185" y="850.09" as="sourcePoint" />
            <mxPoint x="-35" y="850.09" as="targetPoint" />
            <mxPoint as="offset" />
            <Array as="points">
              <mxPoint x="-180" y="850.09" />
            </Array>
          </mxGeometry>
        </mxCell>
        <mxCell id="lBqZCHfxyC3GmHe8Lh2Y-87" value="process fail" style="html=1;verticalAlign=bottom;endArrow=open;dashed=1;endSize=8;edgeStyle=elbowEdgeStyle;elbow=vertical;curved=0;rounded=0;" edge="1" parent="WIyWlLk6GJQsqaUBKTNV-1">
          <mxGeometry x="-0.1743" y="10" relative="1" as="geometry">
            <mxPoint x="-36" y="870.09" as="sourcePoint" />
            <mxPoint x="-185" y="870.09" as="targetPoint" />
            <mxPoint as="offset" />
          </mxGeometry>
        </mxCell>
        <mxCell id="lBqZCHfxyC3GmHe8Lh2Y-90" value="Map" style="shape=umlLifeline;perimeter=lifelinePerimeter;whiteSpace=wrap;html=1;container=1;dropTarget=0;collapsible=0;recursiveResize=0;outlineConnect=0;portConstraint=eastwest;newEdgeStyle={&quot;edgeStyle&quot;:&quot;elbowEdgeStyle&quot;,&quot;elbow&quot;:&quot;vertical&quot;,&quot;curved&quot;:0,&quot;rounded&quot;:0};" vertex="1" parent="WIyWlLk6GJQsqaUBKTNV-1">
          <mxGeometry x="120" y="650" width="100" height="470" as="geometry" />
        </mxCell>
        <mxCell id="lBqZCHfxyC3GmHe8Lh2Y-92" value="" style="html=1;points=[];perimeter=orthogonalPerimeter;outlineConnect=0;targetShapes=umlLifeline;portConstraint=eastwest;newEdgeStyle={&quot;edgeStyle&quot;:&quot;elbowEdgeStyle&quot;,&quot;elbow&quot;:&quot;vertical&quot;,&quot;curved&quot;:0,&quot;rounded&quot;:0};" vertex="1" parent="lBqZCHfxyC3GmHe8Lh2Y-90">
          <mxGeometry x="45" y="150.09" width="10" height="150" as="geometry" />
        </mxCell>
        <mxCell id="lBqZCHfxyC3GmHe8Lh2Y-99" value="" style="html=1;points=[];perimeter=orthogonalPerimeter;outlineConnect=0;targetShapes=umlLifeline;portConstraint=eastwest;newEdgeStyle={&quot;edgeStyle&quot;:&quot;elbowEdgeStyle&quot;,&quot;elbow&quot;:&quot;vertical&quot;,&quot;curved&quot;:0,&quot;rounded&quot;:0};" vertex="1" parent="lBqZCHfxyC3GmHe8Lh2Y-90">
          <mxGeometry x="45" y="378.93" width="10" height="40" as="geometry" />
        </mxCell>
        <mxCell id="lBqZCHfxyC3GmHe8Lh2Y-93" value="filtered results displayed" style="html=1;verticalAlign=bottom;endArrow=block;edgeStyle=elbowEdgeStyle;elbow=vertical;curved=0;rounded=0;" edge="1" parent="WIyWlLk6GJQsqaUBKTNV-1" target="lBqZCHfxyC3GmHe8Lh2Y-92">
          <mxGeometry x="0.0256" y="-10" width="80" relative="1" as="geometry">
            <mxPoint x="-30" y="800.09" as="sourcePoint" />
            <mxPoint x="90" y="800.09" as="targetPoint" />
            <mxPoint as="offset" />
            <Array as="points">
              <mxPoint x="-25" y="800.09" />
            </Array>
          </mxGeometry>
        </mxCell>
        <mxCell id="lBqZCHfxyC3GmHe8Lh2Y-94" value="filtered results displayed" style="html=1;verticalAlign=bottom;endArrow=block;edgeStyle=elbowEdgeStyle;elbow=vertical;curved=0;rounded=0;" edge="1" parent="WIyWlLk6GJQsqaUBKTNV-1">
          <mxGeometry x="0.0256" y="-10" width="80" relative="1" as="geometry">
            <mxPoint x="-30" y="890.09" as="sourcePoint" />
            <mxPoint x="165" y="890.09" as="targetPoint" />
            <mxPoint as="offset" />
            <Array as="points">
              <mxPoint x="-25" y="890.09" />
            </Array>
          </mxGeometry>
        </mxCell>
        <mxCell id="lBqZCHfxyC3GmHe8Lh2Y-95" value="PDF report sent back" style="html=1;verticalAlign=bottom;endArrow=open;dashed=1;endSize=8;edgeStyle=elbowEdgeStyle;elbow=vertical;curved=0;rounded=0;" edge="1" parent="WIyWlLk6GJQsqaUBKTNV-1">
          <mxGeometry x="-0.0244" y="10" relative="1" as="geometry">
            <mxPoint x="169" y="950.09" as="sourcePoint" />
            <mxPoint x="-398" y="950.1952631578948" as="targetPoint" />
            <mxPoint as="offset" />
          </mxGeometry>
        </mxCell>
        <mxCell id="lBqZCHfxyC3GmHe8Lh2Y-98" value="Skip login" style="html=1;verticalAlign=bottom;endArrow=block;edgeStyle=elbowEdgeStyle;elbow=vertical;curved=0;rounded=0;" edge="1" parent="WIyWlLk6GJQsqaUBKTNV-1" target="lBqZCHfxyC3GmHe8Lh2Y-97">
          <mxGeometry x="-0.1109" y="-10" width="80" relative="1" as="geometry">
            <mxPoint x="-400" y="1028.93" as="sourcePoint" />
            <mxPoint x="-320" y="1028.93" as="targetPoint" />
            <mxPoint as="offset" />
          </mxGeometry>
        </mxCell>
        <mxCell id="lBqZCHfxyC3GmHe8Lh2Y-100" value="filtered results diplayed" style="html=1;verticalAlign=bottom;endArrow=block;edgeStyle=elbowEdgeStyle;elbow=vertical;curved=0;rounded=0;" edge="1" parent="WIyWlLk6GJQsqaUBKTNV-1" target="lBqZCHfxyC3GmHe8Lh2Y-99">
          <mxGeometry x="-0.1664" y="-10" width="80" relative="1" as="geometry">
            <mxPoint x="-310" y="1048.93" as="sourcePoint" />
            <mxPoint x="-225" y="1048.93" as="targetPoint" />
            <mxPoint as="offset" />
          </mxGeometry>
        </mxCell>
        <mxCell id="lBqZCHfxyC3GmHe8Lh2Y-105" value="PDF report sent back" style="html=1;verticalAlign=bottom;endArrow=open;dashed=1;endSize=8;edgeStyle=elbowEdgeStyle;elbow=vertical;curved=0;rounded=0;" edge="1" parent="WIyWlLk6GJQsqaUBKTNV-1">
          <mxGeometry x="-0.0244" y="10" relative="1" as="geometry">
            <mxPoint x="172" y="1069.35" as="sourcePoint" />
            <mxPoint x="-400" y="1069.35" as="targetPoint" />
            <mxPoint as="offset" />
          </mxGeometry>
        </mxCell>
        <mxCell id="lBqZCHfxyC3GmHe8Lh2Y-106" value="PDF report sent back" style="html=1;verticalAlign=bottom;endArrow=open;dashed=1;endSize=8;edgeStyle=elbowEdgeStyle;elbow=vertical;curved=0;rounded=0;" edge="1" parent="WIyWlLk6GJQsqaUBKTNV-1">
          <mxGeometry x="-0.0244" y="10" relative="1" as="geometry">
            <mxPoint x="167" y="820.09" as="sourcePoint" />
            <mxPoint x="-400" y="820.1952631578948" as="targetPoint" />
            <mxPoint as="offset" />
          </mxGeometry>
        </mxCell>
        <mxCell id="lBqZCHfxyC3GmHe8Lh2Y-107" value="PDF report sent back" style="html=1;verticalAlign=bottom;endArrow=open;dashed=1;endSize=8;edgeStyle=elbowEdgeStyle;elbow=vertical;curved=0;rounded=0;" edge="1" parent="WIyWlLk6GJQsqaUBKTNV-1">
          <mxGeometry x="-0.0244" y="10" relative="1" as="geometry">
            <mxPoint x="167" y="910.09" as="sourcePoint" />
            <mxPoint x="-400" y="910.1952631578948" as="targetPoint" />
            <mxPoint as="offset" />
          </mxGeometry>
        </mxCell>
        <mxCell id="lBqZCHfxyC3GmHe8Lh2Y-108" value="alt" style="shape=umlFrame;whiteSpace=wrap;html=1;pointerEvents=0;" vertex="1" parent="WIyWlLk6GJQsqaUBKTNV-1">
          <mxGeometry x="-485" y="700" width="735" height="290" as="geometry" />
        </mxCell>
        <mxCell id="lBqZCHfxyC3GmHe8Lh2Y-109" value="" style="endArrow=none;dashed=1;html=1;rounded=0;exitX=-0.004;exitY=0.482;exitDx=0;exitDy=0;exitPerimeter=0;entryX=1;entryY=0.483;entryDx=0;entryDy=0;entryPerimeter=0;" edge="1" parent="WIyWlLk6GJQsqaUBKTNV-1" source="lBqZCHfxyC3GmHe8Lh2Y-108" target="lBqZCHfxyC3GmHe8Lh2Y-108">
          <mxGeometry width="50" height="50" relative="1" as="geometry">
            <mxPoint x="-370" y="890" as="sourcePoint" />
            <mxPoint x="-320" y="840" as="targetPoint" />
            <Array as="points">
              <mxPoint x="-480" y="840" />
            </Array>
          </mxGeometry>
        </mxCell>
        <mxCell id="lBqZCHfxyC3GmHe8Lh2Y-111" value="else if" style="edgeLabel;html=1;align=center;verticalAlign=middle;resizable=0;points=[];" vertex="1" connectable="0" parent="lBqZCHfxyC3GmHe8Lh2Y-109">
          <mxGeometry x="-0.9177" y="-4" relative="1" as="geometry">
            <mxPoint x="-2" y="6" as="offset" />
          </mxGeometry>
        </mxCell>
        <mxCell id="lBqZCHfxyC3GmHe8Lh2Y-113" value="" style="endArrow=none;dashed=1;html=1;rounded=0;exitX=-0.004;exitY=0.482;exitDx=0;exitDy=0;exitPerimeter=0;entryX=1;entryY=0.483;entryDx=0;entryDy=0;entryPerimeter=0;" edge="1" parent="WIyWlLk6GJQsqaUBKTNV-1">
          <mxGeometry width="50" height="50" relative="1" as="geometry">
            <mxPoint x="-486.5" y="930" as="sourcePoint" />
            <mxPoint x="251.5" y="930" as="targetPoint" />
            <Array as="points">
              <mxPoint x="-478.5" y="930" />
            </Array>
          </mxGeometry>
        </mxCell>
        <mxCell id="lBqZCHfxyC3GmHe8Lh2Y-114" value="else if" style="edgeLabel;html=1;align=center;verticalAlign=middle;resizable=0;points=[];" vertex="1" connectable="0" parent="lBqZCHfxyC3GmHe8Lh2Y-113">
          <mxGeometry x="-0.9177" y="-4" relative="1" as="geometry">
            <mxPoint x="-2" y="6" as="offset" />
          </mxGeometry>
        </mxCell>
        <mxCell id="lBqZCHfxyC3GmHe8Lh2Y-115" value="User Sequence Diagram" style="swimlane;" vertex="1" parent="WIyWlLk6GJQsqaUBKTNV-1">
          <mxGeometry x="-530" y="620" width="825" height="500" as="geometry" />
        </mxCell>
      </root>
    </mxGraphModel>
  </diagram>
</mxfile>
